<svg xmlns="http://www.w3.org/2000/svg" version="1.1" xmlns:xlink="http://www.w3.org/1999/xlink" xmlns:svgjs="http://svgjs.dev/svgjs" width="1000" height="1000" viewBox="0 0 1000 1000"><rect width="1000" height="1000" fill="#ffffff"></rect><g transform="matrix(0.7,0,0,0.7,149.74277074588156,230.36850291376282)"><svg viewBox="0 0 320 247" data-background-color="#77d4fc" preserveAspectRatio="xMidYMid meet" height="771" width="1000" xmlns="http://www.w3.org/2000/svg" xmlns:xlink="http://www.w3.org/1999/xlink"><g id="tight-bounds" transform="matrix(1,0,0,1,0.11759051616843408,-0.10000040707691937)"><svg viewBox="0 0 319.7648136547775 247.2" height="247.2" width="319.7648136547775"><g><svg viewBox="0 0 395.52 305.7639234364184" height="247.2" width="319.7648136547775"><g transform="matrix(1,0,0,1,0,227.09550361329138)"><svg viewBox="0 0 395.52 78.66841982312698" height="78.66841982312698" width="395.52"><g id="textblocktransform"><svg viewBox="0 0 395.52 78.66841982312698" height="78.66841982312698" width="395.52" id="textblock"><g><svg viewBox="0 0 395.52 78.66841982312698" height="78.66841982312698" width="395.52"><g transform="matrix(1,0,0,1,0,0)"><svg width="395.52" viewBox="2.3499999046325684 -41.54999923706055 299.6199951171875 59.599998474121094" height="78.66841982312698" data-palette-color="#000000"><path d="M25.7 3.7L25.7 3.7Q25.6 3.75 25.5 3.75 25.4 3.75 25.1 3.75L25.1 3.75Q24.4 3.75 23.48 3.53 22.55 3.3 21.68 2.98 20.8 2.65 20.18 2.25 19.55 1.85 19.4 1.55L19.4 1.55Q19.35 0.85 19.35 0.1 19.35-0.65 19.35-1.35L19.35-1.35Q19.35-6.95 20.18-13.05 21-19.15 22.9-26.25L22.9-26.25Q23.1-26.95 23.33-28.03 23.55-29.1 23.8-30.35L23.8-30.35Q22.6-29.4 20.95-27.33 19.3-25.25 17.48-22.43 15.65-19.6 13.83-16.23 12-12.85 10.5-9.38 9-5.9 7.93-2.5 6.85 0.9 6.6 3.8L6.6 3.8Q4.2 3.1 3.28 2.4 2.35 1.7 2.35 0.7L2.35 0.7Q2.35-0.2 2.9-1.85 3.45-3.5 4.45-5.75 5.45-8 6.9-10.78 8.35-13.55 10.1-16.75L10.1-16.75Q12.1-20.4 14.03-23.6 15.95-26.8 17.8-29.4 19.65-32 21.43-33.9 23.2-35.8 24.95-36.8L24.95-36.8Q25.65-36.8 26.83-36.45 28-36.1 29.13-35.6 30.25-35.1 31.13-34.58 32-34.05 32.1-33.7L32.1-33.7Q31.4-32.3 30.45-29.5 29.5-26.7 28.53-23.15 27.55-19.6 26.68-15.63 25.8-11.65 25.3-8L25.3-8Q26.45-10.75 27.98-13.73 29.5-16.7 31.2-19.63 32.9-22.55 34.68-25.3 36.45-28.05 38.15-30.33 39.85-32.6 41.33-34.3 42.8-36 43.95-36.8L43.95-36.8Q44.65-36.8 45.83-36.45 47-36.1 48.13-35.6 49.25-35.1 50.13-34.58 51-34.05 51.1-33.7L51.1-33.7Q49.5-30.85 48.3-26.75 47.1-22.65 46.28-18.15 45.45-13.65 45.03-9.22 44.6-4.8 44.6-1.3L44.6-1.3Q44.6-0.15 44.6 1.1 44.6 2.35 44.7 3.7L44.7 3.7Q44 3.7 43.03 3.53 42.05 3.35 41.13 3.05 40.2 2.75 39.45 2.38 38.7 2 38.4 1.55L38.4 1.55Q38.35 0.85 38.35 0.1 38.35-0.65 38.35-1.35L38.35-1.35Q38.35-6.95 39.18-13.05 40-19.15 41.9-26.25L41.9-26.25Q42.1-26.95 42.35-28.15 42.6-29.35 42.85-30.65L42.85-30.65Q41.45-29.95 39.68-27.98 37.9-26 36.08-23.18 34.25-20.35 32.48-16.9 30.7-13.45 29.28-9.88 27.85-6.3 26.88-2.78 25.9 0.75 25.7 3.7ZM69.6-7.75L69.6-7.75Q68.45-4.1 67.3-1.1 66.15 1.9 64.85 4.42 63.55 6.95 62.05 9.08 60.55 11.2 58.75 13.1L58.75 13.1Q56.45 15.5 54 16.78 51.55 18.05 49.1 18.05L49.1 18.05Q47.85 18.05 46.62 17.78 45.4 17.5 44.32 17.03 43.25 16.55 42.42 15.93 41.6 15.3 41.25 14.6L41.25 14.6Q41.25 14 41.95 13.55L41.95 13.55Q42.55 14.1 42.95 14.4 43.35 14.7 43.72 14.9 44.1 15.1 44.52 15.15 44.95 15.2 45.5 15.2L45.5 15.2Q48.35 15.2 51.07 13.53 53.8 11.85 56.22 8.78 58.65 5.7 60.65 1.33 62.65-3.05 64.05-8.45L64.05-8.45Q63.4-7.45 62.45-6 61.5-4.55 60.35-3.13 59.2-1.7 57.97-0.55 56.75 0.6 55.6 1L55.6 1Q54.8 0.95 53.92 0.68 53.05 0.4 52.27-0.1 51.5-0.6 50.9-1.3 50.3-2 50.1-2.9L50.1-2.9Q50.1-4.35 50.2-5.23 50.3-6.1 50.55-7.15L50.55-7.15Q51-9.05 51.87-11.45 52.75-13.85 53.92-16.18 55.1-18.5 56.52-20.53 57.95-22.55 59.5-23.7L59.5-23.7Q59.9-23.7 60.5-23.63 61.1-23.55 61.75-23.35 62.4-23.15 63-22.88 63.6-22.6 64.05-22.15L64.05-22.15Q63.5-21.65 61.65-18.8 59.8-15.95 57.55-10.6L57.55-10.6Q57.3-10.05 56.95-9 56.6-7.95 56.27-6.8 55.95-5.65 55.7-4.55 55.45-3.45 55.45-2.8L55.45-2.8Q55.45-2.4 55.57-2.2 55.7-2 55.8-1.9L55.8-1.9Q56.7-2.05 58.2-3.38 59.7-4.7 61.6-7.5L61.6-7.5Q62.8-9.3 63.8-11.08 64.8-12.85 65.77-14.65 66.75-16.45 67.8-18.35 68.85-20.25 70.05-22.25L70.05-22.25Q70.7-22.25 71.45-22.1 72.2-21.95 72.9-21.73 73.6-21.5 74.12-21.23 74.65-20.95 74.9-20.65L74.9-20.65Q73.35-17.35 72-14.2 70.65-11.05 69.6-7.75ZM80.6-9.3L80.6-9.3Q79.05-9.3 78.12-10.18 77.2-11.05 77.2-12.6L77.2-12.6Q77.2-12.85 77.3-13.35 77.4-13.85 77.5-14.1L77.5-14.1Q78.35-13.95 79.1-13.93 79.85-13.9 81.05-13.9L81.05-13.9Q83.6-13.9 85.82-14.05 88.05-14.2 89.85-14.4 91.65-14.6 92.95-14.75 94.25-14.9 94.95-14.9L94.95-14.9Q95.9-14.9 96.62-13.75 97.35-12.6 97.7-10.45L97.7-10.45Q96.45-10.6 95.65-10.65 94.85-10.7 94.25-10.7L94.25-10.7Q92.1-10.7 90.25-10.48 88.4-10.25 86.75-10 85.1-9.75 83.6-9.53 82.1-9.3 80.6-9.3ZM112.44-23.35L112.44-23.35Q113.44-23.35 114.74-22.75 116.04-22.15 117.04-21.2L117.04-21.2Q116.79-23.2 116.42-24.98 116.04-26.75 115.32-28.65 114.59-30.55 113.39-32.8 112.19-35.05 110.39-37.95L110.39-37.95Q110.54-38.4 111.07-39 111.59-39.6 112.27-40.13 112.94-40.65 113.67-41.05 114.39-41.45 115.04-41.55L115.04-41.55Q116.44-40 117.69-37.68 118.94-35.35 119.89-32.68 120.84-30 121.37-27.15 121.89-24.3 121.89-21.7L121.89-21.7Q121.89-19.1 121.32-16.35 120.74-13.6 119.72-10.98 118.69-8.35 117.34-6 115.99-3.65 114.42-1.8 112.84 0.05 111.14 1.23 109.44 2.4 107.74 2.7L107.74 2.7Q104.29 2.3 102.47 0.48 100.64-1.35 100.64-4.55L100.64-4.55Q100.64-6.25 101.17-8.25 101.69-10.25 102.57-12.23 103.44-14.2 104.62-16.07 105.79-17.95 107.12-19.45 108.44-20.95 109.79-22 111.14-23.05 112.44-23.35ZM107.34 0.7L107.34 0.7Q109.09 0.1 110.84-1.95 112.59-4 113.99-6.78 115.39-9.55 116.27-12.73 117.14-15.9 117.14-18.85L117.14-18.85Q117.14-19.7 117.14-19.9 117.14-20.1 117.09-20.3L117.09-20.3Q115.89-19.8 114.54-18.6 113.19-17.4 111.84-15.83 110.49-14.25 109.29-12.4 108.09-10.55 107.14-8.7 106.19-6.85 105.64-5.15 105.09-3.45 105.09-2.15L105.09-2.15Q105.09 0.35 107.34 0.7ZM123.24-3.35L123.24-3.35Q123.24-3.8 123.32-4.48 123.39-5.15 123.59-6.28 123.79-7.4 124.12-9 124.44-10.6 124.94-12.85L124.94-12.85Q125.04-13.35 125.39-14.45 125.74-15.55 126.32-16.78 126.89-18 127.72-19.15 128.54-20.3 129.69-20.85L129.69-20.85Q130.54-20.65 131.94-19.83 133.34-19 134.34-17.55L134.34-17.55Q133.19-16.25 132.42-14.95 131.64-13.65 131.02-12.25 130.39-10.85 129.87-9.35 129.34-7.85 128.69-6.2L128.69-6.2Q128.14-4.8 127.69-3.33 127.24-1.85 127.19-0.75L127.19-0.75Q127.19 0.15 127.17 0.53 127.14 0.9 126.89 0.9L126.89 0.9Q126.69 0.9 126.09 0.65 125.49 0.4 124.87-0.13 124.24-0.65 123.74-1.45 123.24-2.25 123.24-3.35ZM132.79-25.05L132.79-25.05Q132.79-25.35 132.94-25.95L132.94-25.95Q132.69-26.2 132.52-26.7 132.34-27.2 132.34-27.6L132.34-27.6Q132.34-28.05 132.47-28.83 132.59-29.6 132.79-30.5 132.99-31.4 133.29-32.38 133.59-33.35 133.89-34.15L133.89-34.15Q134.49-34.15 135.37-33.83 136.24-33.5 137.14-32.98 138.04-32.45 138.79-31.83 139.54-31.2 139.94-30.65L139.94-30.65Q139.39-30.1 138.49-29.13 137.59-28.15 136.74-27.08 135.89-26 135.19-25.05 134.49-24.1 134.29-23.7L134.29-23.7Q133.69-23.8 133.24-24.23 132.79-24.65 132.79-25.05ZM135.29-8.8L135.29-8.8Q135.29-11.65 136.46-14.33 137.64-17 139.56-19.07 141.49-21.15 143.96-22.43 146.44-23.7 149.09-23.7L149.09-23.7Q151.69-23.7 153.09-22.4 154.49-21.1 154.49-18.7L154.49-18.7Q154.49-17.55 154.16-16.48 153.84-15.4 153.31-14.55 152.79-13.7 152.09-13.18 151.39-12.65 150.69-12.65L150.69-12.65Q150.09-12.65 149.46-13.03 148.84-13.4 148.44-14L148.44-14Q151.79-17.05 151.79-19.55L151.79-19.55Q151.79-21 150.64-21L150.64-21Q149.64-21 148.14-20.05 146.64-19.1 145.24-17.55L145.24-17.55Q143.09-15.15 141.96-12.23 140.84-9.3 140.84-6.1L140.84-6.1Q140.84-2.05 142.64-1.25L142.64-1.25Q143.39-1.35 144.39-1.7 145.39-2.05 146.54-2.63 147.69-3.2 148.91-3.95 150.14-4.7 151.29-5.55L151.29-5.55Q151.49-5.4 151.64-5.1 151.79-4.8 151.79-4.55L151.79-4.55Q150.94-3.5 149.84-2.5 148.74-1.5 147.54-0.68 146.34 0.15 145.21 0.73 144.09 1.3 143.24 1.45L143.24 1.45Q141.59 1.3 140.14 0.43 138.69-0.45 137.61-1.85 136.54-3.25 135.91-5.05 135.29-6.85 135.29-8.8ZM161.59-19.15L158.74-19.15Q158.49-19.45 158.29-20.43 158.09-21.4 158.09-22.1L158.09-22.1Q159.39-22 160.59-21.93 161.79-21.85 162.79-21.8L162.79-21.8Q163.54-23.3 164.41-24.78 165.29-26.25 166.11-27.48 166.94-28.7 167.66-29.55 168.39-30.4 168.79-30.65L168.79-30.65Q169.29-30.65 170.06-30.48 170.84-30.3 171.64-30.03 172.44-29.75 173.09-29.45 173.74-29.15 173.99-28.85L173.99-28.85Q172.49-26.95 171.41-25.33 170.34-23.7 169.09-21.6L169.09-21.6Q170.09-21.6 171.11-21.65 172.14-21.7 173.19-21.8L173.19-21.8Q173.44-21.55 173.59-21.18 173.74-20.8 173.74-20.4L173.74-20.4Q171.29-19.5 167.79-19.4L167.79-19.4Q166.54-17 165.56-14.63 164.59-12.25 163.91-10.05 163.24-7.85 162.86-5.9 162.49-3.95 162.49-2.4L162.49-2.4Q162.49-0.2 164.14 0.05L164.14 0.05Q165.64-0.15 166.99-0.7 168.34-1.25 169.39-2.1L169.39-2.1Q169.69-1.65 169.74-1.35L169.74-1.35Q169.44-0.9 168.71-0.3 167.99 0.3 167.14 0.88 166.29 1.45 165.49 1.85 164.69 2.25 164.29 2.3L164.29 2.3Q163.04 2.25 161.79 1.75 160.54 1.25 159.51 0.5 158.49-0.25 157.84-1.18 157.19-2.1 157.19-3L157.19-3Q157.19-4.2 157.51-6.03 157.84-7.85 158.44-10 159.04-12.15 159.84-14.5 160.64-16.85 161.59-19.15L161.59-19.15ZM173.43-3.35L173.43-3.35Q173.43-3.8 173.51-4.48 173.58-5.15 173.78-6.28 173.98-7.4 174.31-9 174.63-10.6 175.13-12.85L175.13-12.85Q175.23-13.35 175.58-14.45 175.93-15.55 176.51-16.78 177.08-18 177.91-19.15 178.73-20.3 179.88-20.85L179.88-20.85Q180.73-20.65 182.13-19.83 183.53-19 184.53-17.55L184.53-17.55Q183.38-16.25 182.61-14.95 181.83-13.65 181.21-12.25 180.58-10.85 180.06-9.35 179.53-7.85 178.88-6.2L178.88-6.2Q178.33-4.8 177.88-3.33 177.43-1.85 177.38-0.75L177.38-0.75Q177.38 0.15 177.36 0.53 177.33 0.9 177.08 0.9L177.08 0.9Q176.88 0.9 176.28 0.65 175.68 0.4 175.06-0.13 174.43-0.65 173.93-1.45 173.43-2.25 173.43-3.35ZM182.98-25.05L182.98-25.05Q182.98-25.35 183.13-25.95L183.13-25.95Q182.88-26.2 182.71-26.7 182.53-27.2 182.53-27.6L182.53-27.6Q182.53-28.05 182.66-28.83 182.78-29.6 182.98-30.5 183.18-31.4 183.48-32.38 183.78-33.35 184.08-34.15L184.08-34.15Q184.68-34.15 185.56-33.83 186.43-33.5 187.33-32.98 188.23-32.45 188.98-31.83 189.73-31.2 190.13-30.65L190.13-30.65Q189.58-30.1 188.68-29.13 187.78-28.15 186.93-27.08 186.08-26 185.38-25.05 184.68-24.1 184.48-23.7L184.48-23.7Q183.88-23.8 183.43-24.23 182.98-24.65 182.98-25.05ZM191.08 1.75L191.08 1.75Q188.23 1.45 186.53-0.75 184.83-2.95 184.83-6.35L184.83-6.35Q184.83-8.35 185.43-10.5 186.03-12.65 187.13-14.68 188.23-16.7 189.73-18.5 191.23-20.3 192.98-21.6L192.98-21.6Q195.73-23.65 198.13-23.65L198.13-23.65Q199.73-22.8 201.28-20.1L201.28-20.1Q201.53-20.1 201.73-20.13 201.93-20.15 202.18-20.15L202.18-20.15Q204.83-20.15 204.83-15.45L204.83-15.45Q204.83-12.3 203.81-9.47 202.78-6.65 200.96-4.35 199.13-2.05 196.61-0.48 194.08 1.1 191.08 1.75ZM193.63-14L193.63-14Q192.78-12.85 192.03-11.5 191.28-10.15 190.73-8.78 190.18-7.4 189.88-6.13 189.58-4.85 189.58-3.85L189.58-3.85Q189.58-2.65 189.98-1.55 190.38-0.45 190.88-0.3L190.88-0.3Q193.13-0.8 195.01-2.18 196.88-3.55 198.26-5.6 199.63-7.65 200.41-10.25 201.18-12.85 201.18-15.8L201.18-15.8Q201.18-17.1 201.03-17.85 200.88-18.6 200.53-19.15L200.53-19.15Q198.33-18.5 196.61-17.05 194.88-15.6 193.63-14ZM215.33-24.25L215.33-24.25Q216.63-23.85 217.78-22.48 218.93-21.1 219.48-19.45L219.48-19.45Q218.93-18.1 217.78-16.2 216.63-14.3 215.48-12.33 214.33-10.35 213.4-8.58 212.48-6.8 212.33-5.65L212.33-5.65Q213.13-6.5 214.1-7.63 215.08-8.75 216-9.88 216.93-11 217.73-11.93 218.53-12.85 218.98-13.3L218.98-13.3Q219.93-14.3 221.23-15.63 222.53-16.95 223.95-18.13 225.38-19.3 226.83-20.13 228.28-20.95 229.48-20.95L229.48-20.95Q230.78-20.95 231.65-20.08 232.53-19.2 233.03-18.25L233.03-18.25Q233.03-18.15 232.65-17.98 232.28-17.8 231.58-17L231.58-17Q230.88-16.1 230-14.53 229.13-12.95 228.3-11.13 227.48-9.3 226.93-7.4 226.38-5.5 226.38-3.95L226.38-3.95Q226.38-2.7 226.7-2.35 227.03-2 227.63-2L227.63-2Q228.18-2 228.78-2.25 229.38-2.5 229.73-2.5L229.73-2.5Q229.93-2.4 230.05-2.08 230.18-1.75 230.18-1.5L230.18-1.5Q229.78-1.15 229.23-0.8 228.68-0.45 228.08-0.15 227.48 0.15 226.9 0.35 226.33 0.55 225.88 0.55L225.88 0.55Q224.43 0.55 223.5 0.13 222.58-0.3 222.05-1 221.53-1.7 221.33-2.68 221.13-3.65 221.13-4.75L221.13-4.75Q221.13-5.35 221.23-6.1 221.33-6.85 221.63-7.88 221.93-8.9 222.48-10.33 223.03-11.75 223.88-13.75L223.88-13.75Q223.78-13.75 222.53-13.05 221.28-12.35 219.83-10.9L219.83-10.9Q217.48-8.65 215.6-6.45 213.73-4.25 211.78-1.55L211.78-1.55Q210.68 0 209.85 1.07 209.03 2.15 208.43 2.5L208.43 2.5Q207.38 1.9 206.88 0.83 206.38-0.25 206.13-1.4L206.13-1.4Q206.13-2.35 206.4-3.8 206.68-5.25 207.15-7.03 207.63-8.8 208.33-10.75 209.03-12.7 209.88-14.65L209.88-14.65Q211.78-19.05 213.35-21.55 214.93-24.05 215.33-24.25ZM251.48-20.2L251.48-20.2Q251.98-20.2 252.65-20.03 253.33-19.85 253.88-19.58 254.43-19.3 254.8-19 255.18-18.7 255.18-18.45L255.18-18.45Q254.18-16.35 253.33-14.23 252.48-12.1 251.88-10.15 251.28-8.2 250.95-6.5 250.63-4.8 250.63-3.55L250.63-3.55Q250.63-2.15 250.93-1.23 251.23-0.3 251.93 0.1L251.93 0.1Q251.33 0.5 250.38 0.75 249.43 1 248.68 1L248.68 1Q245.98 1 245.98-2.7L245.98-2.7Q245.98-5.55 247.88-10.5L247.88-10.5Q246.88-8.2 245.58-6.18 244.28-4.15 242.93-2.6 241.58-1.05 240.2-0.08 238.83 0.9 237.68 1.1L237.68 1.1Q235.83 1 234.68-0.68 233.53-2.35 233.53-4.95L233.53-4.95Q233.53-7.75 234.73-10.85 235.93-13.95 237.8-16.6 239.68-19.25 241.88-21.03 244.08-22.8 246.13-22.9L246.13-22.9Q246.63-22.75 247.25-22.3 247.88-21.85 248.45-21.25 249.03-20.65 249.43-20.03 249.83-19.4 249.88-18.95L249.88-18.95Q247.88-18.65 245.75-17 243.63-15.35 241.9-13.03 240.18-10.7 239.08-8.05 237.98-5.4 237.98-3.1L237.98-3.1Q237.98-2.15 238.68-1.9L238.68-1.9Q240.13-2.2 242.03-4.38 243.93-6.55 246.63-11.1L246.63-11.1Q247.13-12 247.75-13.1 248.38-14.2 249.03-15.4 249.68-16.6 250.3-17.82 250.93-19.05 251.48-20.2ZM256.52-1L256.52-1Q256.77-2.45 257.4-4.83 258.02-7.2 258.87-9.88 259.72-12.55 260.67-15.25 261.62-17.95 262.52-20.1L262.52-20.1Q263.17-21.65 263.67-22.53 264.17-23.4 264.77-24L264.77-24Q265.47-23.9 266.22-23.65 266.97-23.4 267.67-23.05 268.37-22.7 268.92-22.33 269.47-21.95 269.77-21.6L269.77-21.6Q268.42-20 267.4-17.95 266.37-15.9 265.32-12.7L265.32-12.7Q268.02-15.1 270.1-17.3 272.17-19.5 273.97-22.2L273.97-22.2Q274.27-22.45 275.02-22.45L275.02-22.45Q275.72-22.45 276.37-22.23 277.02-22 277.27-21.6L277.27-21.6Q276.37-19.2 276.37-16.85L276.37-16.85Q276.37-14.65 277.02-13.55L277.02-13.55Q276.97-13.25 276.35-12.4 275.72-11.55 274.97-10.8L274.97-10.8Q273.62-11.5 272.57-12.73 271.52-13.95 271.02-15.4L271.02-15.4Q268.67-13.75 267.02-12.18 265.37-10.6 264.2-8.68 263.02-6.75 262.2-4.25 261.37-1.75 260.62 1.7L260.62 1.7Q260.17 1.65 259.55 1.38 258.92 1.1 258.3 0.7 257.67 0.3 257.17-0.15 256.67-0.6 256.52-1ZM296.67-7.75L296.67-7.75Q295.52-4.1 294.37-1.1 293.22 1.9 291.92 4.42 290.62 6.95 289.12 9.08 287.62 11.2 285.82 13.1L285.82 13.1Q283.52 15.5 281.07 16.78 278.62 18.05 276.17 18.05L276.17 18.05Q274.92 18.05 273.7 17.78 272.47 17.5 271.4 17.03 270.32 16.55 269.5 15.93 268.67 15.3 268.32 14.6L268.32 14.6Q268.32 14 269.02 13.55L269.02 13.55Q269.62 14.1 270.02 14.4 270.42 14.7 270.8 14.9 271.17 15.1 271.6 15.15 272.02 15.2 272.57 15.2L272.57 15.2Q275.42 15.2 278.15 13.53 280.87 11.85 283.3 8.78 285.72 5.7 287.72 1.33 289.72-3.05 291.12-8.45L291.12-8.45Q290.47-7.45 289.52-6 288.57-4.55 287.42-3.13 286.27-1.7 285.05-0.55 283.82 0.6 282.67 1L282.67 1Q281.87 0.95 281 0.68 280.12 0.4 279.35-0.1 278.57-0.6 277.97-1.3 277.37-2 277.17-2.9L277.17-2.9Q277.17-4.35 277.27-5.23 277.37-6.1 277.62-7.15L277.62-7.15Q278.07-9.05 278.95-11.45 279.82-13.85 281-16.18 282.17-18.5 283.6-20.53 285.02-22.55 286.57-23.7L286.57-23.7Q286.97-23.7 287.57-23.63 288.17-23.55 288.82-23.35 289.47-23.15 290.07-22.88 290.67-22.6 291.12-22.15L291.12-22.15Q290.57-21.65 288.72-18.8 286.87-15.95 284.62-10.6L284.62-10.6Q284.37-10.05 284.02-9 283.67-7.95 283.35-6.8 283.02-5.65 282.77-4.55 282.52-3.45 282.52-2.8L282.52-2.8Q282.52-2.4 282.65-2.2 282.77-2 282.87-1.9L282.87-1.9Q283.77-2.05 285.27-3.38 286.77-4.7 288.67-7.5L288.67-7.5Q289.87-9.3 290.87-11.08 291.87-12.85 292.85-14.65 293.82-16.45 294.87-18.35 295.92-20.25 297.12-22.25L297.12-22.25Q297.77-22.25 298.52-22.1 299.27-21.95 299.97-21.73 300.67-21.5 301.2-21.23 301.72-20.95 301.97-20.65L301.97-20.65Q300.42-17.35 299.07-14.2 297.72-11.05 296.67-7.75Z" opacity="1" transform="matrix(1,0,0,1,0,0)" fill="#000000" class="wordmark-text-0" data-fill-palette-color="primary" id="text-0"></path></svg></g></svg></g></svg></g></svg></g><g transform="matrix(1,0,0,1,102.78397407151883,0)"><svg viewBox="0 0 189.95205185696233 189.95205185696233" height="189.95205185696233" width="189.95205185696233"><g><svg></svg></g><g id="icon-0"><svg viewBox="0 0 189.95205185696233 189.95205185696233" height="189.95205185696233" width="189.95205185696233"><g><path d="M0 94.976c0-52.454 42.522-94.976 94.976-94.976 52.454 0 94.976 42.522 94.976 94.976 0 52.454-42.522 94.976-94.976 94.976-52.454 0-94.976-42.522-94.976-94.976zM94.976 182.858c48.536 0 87.882-39.346 87.882-87.882 0-48.536-39.346-87.882-87.882-87.882-48.536 0-87.882 39.346-87.882 87.882 0 48.536 39.346 87.882 87.882 87.882z" data-fill-palette-color="accent" fill="#000000" stroke="transparent"></path><ellipse rx="94.02626566919635" ry="94.02626566919635" cx="94.97602592848116" cy="94.97602592848116" fill="#000000" stroke="transparent" stroke-width="0" fill-opacity="1" data-fill-palette-color="accent"></ellipse></g><g transform="matrix(1,0,0,1,49.54788542110598,41.476285397028235)"><svg viewBox="0 0 90.85628101475037 106.99948106290586" height="106.99948106290586" width="90.85628101475037"><g><svg xmlns="http://www.w3.org/2000/svg" xmlns:xlink="http://www.w3.org/1999/xlink" version="1.0" x="0" y="0" viewBox="16.887495040893555 11.004119873046875 66.22500610351562 77.99176025390625" enable-background="new 0 0 100 100" xml:space="preserve" height="106.99948106290586" width="90.85628101475037" class="icon-s-0" data-fill-palette-color="quaternary" id="s-0"><path d="M79.121 16.396c-0.682-1.723-0.607-3.656 0.075-5.367l-58.466-0.025c-2.132 0-3.842 1.748-3.843 3.88v1.512H79.121z" fill="#ffffff" data-fill-palette-color="quaternary"></path><path d="M25.378 88.93h57.735V20.375H16.887v64.675C16.887 89.822 22.44 88.93 25.378 88.93zM33.744 34.628h32.512c1.091 0 1.983 0.892 1.983 1.984v6.098c0 1.103-0.892 1.996-1.983 1.995h-32.512c-1.091 0-1.983-0.892-1.983-1.995v-6.098C31.761 35.521 32.654 34.628 33.744 34.628z" fill="#ffffff" data-fill-palette-color="quaternary"></path></svg></g></svg></g></svg></g></svg></g><g></g></svg></g><defs></defs></svg><rect width="319.7648136547775" height="247.2" fill="none" stroke="none" visibility="hidden"></rect></g></svg></g></svg>