<svg xmlns="http://www.w3.org/2000/svg" version="1.1" xmlns:xlink="http://www.w3.org/1999/xlink" xmlns:svgjs="http://svgjs.dev/svgjs" width="1000" height="1000" viewBox="0 0 1000 1000"><rect width="1000" height="1000" fill="#000000"></rect><g transform="matrix(0.7,0,0,0.7,150,172.04999999999995)"><svg viewBox="0 0 384 360" data-background-color="#444444" preserveAspectRatio="xMidYMid meet" height="937" width="1000" xmlns="http://www.w3.org/2000/svg" xmlns:xlink="http://www.w3.org/1999/xlink"><g id="tight-bounds" transform="matrix(1,0,0,1,0,0)"><svg viewBox="0 0 384 360" height="360" width="384"><g><svg></svg></g><g><svg viewBox="0 0 384 360" height="360" width="384"><g><path xmlns="http://www.w3.org/2000/svg" d="M362.354 145.441v-42.24c0-21.12-19.163-38.402-42.587-38.402h-93.208c-15.198 0-28.337-8.831-34.559-21.646-6.222 12.81-19.36 21.646-34.559 21.646h-93.208c-23.424 0-42.587 17.282-42.587 38.402v42.24c0 15.198-8.831 28.337-21.646 34.559 12.81 6.222 21.646 19.36 21.646 34.559v42.24c0 21.12 19.163 38.402 42.587 38.402h93.208c15.198 0 28.337 8.831 34.559 21.646 6.222-12.81 19.36-21.646 34.559-21.646h93.208c23.424 0 42.587-17.282 42.587-38.402v-42.24c0-15.198 8.831-28.337 21.646-34.559-12.81-6.222-21.646-19.36-21.646-34.559z" fill="#ffffff" fill-rule="nonzero" stroke="none" stroke-width="1" stroke-linecap="butt" stroke-linejoin="miter" stroke-miterlimit="10" stroke-dasharray="" stroke-dashoffset="0" font-family="none" font-weight="none" font-size="none" text-anchor="none" style="mix-blend-mode: normal" data-fill-palette-color="tertiary"></path></g><g transform="matrix(1,0,0,1,76.80000000000001,155.02589716684156)"><svg viewBox="0 0 230.39999999999998 49.94820566631689" height="49.94820566631689" width="230.39999999999998"><g><svg viewBox="0 0 230.39999999999998 49.94820566631689" height="49.94820566631689" width="230.39999999999998"><g><svg viewBox="0 0 230.39999999999998 49.94820566631689" height="49.94820566631689" width="230.39999999999998"><g><svg viewBox="0 0 230.39999999999998 49.94820566631689" height="49.94820566631689" width="230.39999999999998"><g id="textblocktransform"><svg viewBox="0 0 230.39999999999998 49.94820566631689" height="49.94820566631689" width="230.39999999999998" id="textblock"><g><svg viewBox="0 0 230.39999999999998 49.94820566631689" height="49.94820566631689" width="230.39999999999998"><g transform="matrix(1,0,0,1,0,0)"><svg width="230.39999999999998" viewBox="-0.75 -39.5 239.22999572753906 52.650001525878906" height="49.94820566631689" data-palette-color="#444444"><path d="M15.4 0.6L15.4 0.6Q19.1 0.6 22.05-1 25-2.6 26.73-5.63 28.45-8.65 28.45-12.9L28.45-12.9 28.45-36.5 23.85-36.5 23.85-20.95 23.75-20.95Q22.9-22.5 21.53-23.65 20.15-24.8 18.38-25.45 16.6-26.1 14.65-26.1L14.65-26.1Q11.1-26.1 8.3-24.5 5.5-22.9 3.88-19.98 2.25-17.05 2.25-13.05L2.25-13.05Q2.25-9.9 3.23-7.38 4.2-4.85 5.95-3.05 7.7-1.25 10.1-0.33 12.5 0.6 15.4 0.6ZM15.4-3.35L15.4-3.35Q13.05-3.35 11.13-4.5 9.2-5.65 8.05-7.75 6.9-9.85 6.9-12.75L6.9-12.75Q6.9-15.55 8.03-17.65 9.15-19.75 11.05-20.95 12.95-22.15 15.35-22.15L15.35-22.15Q17.7-22.15 19.63-21 21.55-19.85 22.68-17.73 23.8-15.6 23.8-12.7L23.8-12.7Q23.8-9.85 22.68-7.75 21.55-5.65 19.63-4.5 17.7-3.35 15.4-3.35ZM40.25 0L35.6 0 35.6-25.5 40.25-25.5 40.25 0ZM37.95-29.55L37.95-29.55Q36.7-29.55 35.77-30.48 34.85-31.4 34.85-32.65L34.85-32.65Q34.85-33.9 35.77-34.83 36.7-35.75 37.95-35.75L37.95-35.75Q39.2-35.75 40.12-34.83 41.05-33.9 41.05-32.65L41.05-32.65Q41.05-31.4 40.12-30.48 39.2-29.55 37.95-29.55ZM62.85 0L59.85 0Q55.9 0 52.8-1.7 49.7-3.4 47.9-6.28 46.1-9.15 46.1-12.75L46.1-12.75Q46.1-16.35 47.9-19.23 49.7-22.1 52.8-23.8 55.9-25.5 59.85-25.5L59.85-25.5 62.85-25.5 62.85-21.55 59.7-21.55Q57.15-21.55 55.12-20.38 53.1-19.2 51.92-17.2 50.75-15.2 50.75-12.75L50.75-12.75Q50.75-10.3 51.92-8.3 53.1-6.3 55.12-5.13 57.15-3.95 59.7-3.95L59.7-3.95 62.85-3.95 62.85 0ZM82.79 0L76.79 0Q73.39 0 71.47-1.95 69.54-3.9 69.54-7.25L69.54-7.25 69.54-31.9 74.14-31.9 74.14-7.55Q74.14-5.9 75.07-4.93 75.99-3.95 77.64-3.95L77.64-3.95 82.79-3.95 82.79 0ZM82.89-21.55L65.14-21.55 65.14-25.5 82.89-25.5 82.89-21.55ZM93.09 0L88.44 0 88.44-25.5 93.09-25.5 93.09 0ZM90.79-29.55L90.79-29.55Q89.54-29.55 88.62-30.48 87.69-31.4 87.69-32.65L87.69-32.65Q87.69-33.9 88.62-34.83 89.54-35.75 90.79-35.75L90.79-35.75Q92.04-35.75 92.97-34.83 93.89-33.9 93.89-32.65L93.89-32.65Q93.89-31.4 92.97-30.48 92.04-29.55 90.79-29.55ZM112.34 0.6L112.34 0.6Q108.44 0.6 105.44-1.18 102.44-2.95 100.69-5.98 98.94-9 98.94-12.75L98.94-12.75Q98.94-16.5 100.69-19.53 102.44-22.55 105.44-24.33 108.44-26.1 112.34-26.1L112.34-26.1Q116.24-26.1 119.26-24.33 122.29-22.55 124.01-19.53 125.74-16.5 125.74-12.75L125.74-12.75Q125.74-9 124.01-5.98 122.29-2.95 119.26-1.18 116.24 0.6 112.34 0.6ZM112.34-3.35L112.34-3.35Q114.99-3.35 116.94-4.6 118.89-5.85 119.99-7.98 121.09-10.1 121.09-12.75L121.09-12.75Q121.09-15.4 119.99-17.53 118.89-19.65 116.94-20.9 114.99-22.15 112.34-22.15L112.34-22.15Q109.74-22.15 107.76-20.9 105.79-19.65 104.69-17.53 103.59-15.4 103.59-12.75L103.59-12.75Q103.59-10.1 104.69-7.98 105.79-5.85 107.76-4.6 109.74-3.35 112.34-3.35ZM136.24 0L131.64 0 131.64-14.75Q131.64-18.15 133.16-20.7 134.69-23.25 137.39-24.68 140.09-26.1 143.54-26.1L143.54-26.1Q147.04-26.1 149.71-24.68 152.39-23.25 153.91-20.7 155.44-18.15 155.44-14.75L155.44-14.75 155.44 0 150.84 0 150.84-14.7Q150.84-17 149.81-18.68 148.79-20.35 147.11-21.25 145.44-22.15 143.54-22.15L143.54-22.15Q141.64-22.15 139.96-21.25 138.29-20.35 137.26-18.68 136.24-17 136.24-14.7L136.24-14.7 136.24 0ZM173.33 0.6L173.33 0.6Q169.63 0.6 166.93-1.18 164.23-2.95 162.78-6 161.33-9.05 161.33-12.75L161.33-12.75Q161.33-16.5 162.93-19.53 164.53-22.55 167.53-24.33 170.53-26.1 174.73-26.1L174.73-26.1Q178.78-26.1 181.68-24.35 184.58-22.6 186.16-19.6 187.73-16.6 187.73-12.9L187.73-12.9 187.73 0 183.08 0 183.08-5.2 182.98-5.2Q182.23-3.75 180.96-2.43 179.68-1.1 177.78-0.25 175.88 0.6 173.33 0.6ZM174.53-3.35L174.53-3.35Q177.03-3.35 178.96-4.58 180.88-5.8 181.96-7.98 183.03-10.15 183.03-12.85L183.03-12.85Q183.03-15.5 182.01-17.6 180.98-19.7 179.08-20.93 177.18-22.15 174.63-22.15L174.63-22.15Q171.93-22.15 170.01-20.9 168.08-19.65 167.06-17.53 166.03-15.4 166.03-12.7L166.03-12.7Q166.03-10.1 167.03-7.98 168.03-5.85 169.93-4.6 171.83-3.35 174.53-3.35ZM199.48 0L194.88 0 194.88-18.25Q194.88-21.65 196.81-23.58 198.73-25.5 202.13-25.5L202.13-25.5 207.38-25.5 207.38-21.55 202.98-21.55Q201.33-21.55 200.41-20.6 199.48-19.65 199.48-17.95L199.48-17.95 199.48 0ZM225.88 10.15L221.28 10.15 221.28 0.4Q218.48 0 216.3-1.48 214.13-2.95 212.88-5.33 211.63-7.7 211.63-10.75L211.63-10.75 211.63-25.5 216.28-25.5 216.28-10.8Q216.28-8.5 217.28-6.83 218.28-5.15 219.95-4.25 221.63-3.35 223.53-3.35L223.53-3.35Q225.48-3.35 227.15-4.25 228.83-5.15 229.85-6.83 230.88-8.5 230.88-10.8L230.88-10.8 230.88-25.5 235.48-25.5 235.48-10.75Q235.48-7.7 234.25-5.35 233.03-3 230.85-1.53 228.68-0.05 225.88 0.4L225.88 0.4 225.88 10.15Z" opacity="1" transform="matrix(1,0,0,1,0,0)" fill="#000000" class="wordmark-text-0" data-fill-palette-color="quaternary" id="text-0"></path></svg></g></svg></g></svg></g></svg></g></svg></g></svg></g></svg></g></svg></g><defs></defs></svg><rect width="384" height="360" fill="none" stroke="none" visibility="hidden"></rect></g></svg></g></svg>